<svg width="535" height="490" viewBox="0 0 535 490" fill="none" xmlns="http://www.w3.org/2000/svg">
<path d="M56.0468 300.732L131.488 73.1634L243.582 450.096L56.0468 300.732Z" fill="#E67C00"/>
<circle cx="320.086" cy="214.914" r="204.914" fill="#E77D00" stroke="#FFAB08" stroke-width="20"/>
<g clip-path="url(#clip0_15_721)">
<path d="M250.377 142.877C248.351 141.194 245.575 138.414 242.928 136.937C240.655 135.67 241.798 141.135 243.719 143.297C245.644 145.46 252.059 149.434 254.945 151.597C257.83 153.76 259.225 153.417 256.385 149.434C253.417 145.268 250.377 142.877 250.377 142.877V142.877Z" fill="#260900"/>
<path d="M256.943 135.972C258.443 137.522 260.304 146.919 260.304 146.919C260.304 146.919 266.166 147.34 271.31 150.513C291.887 163.207 282.934 194.145 289.345 201.279C291.32 203.474 333.613 193.766 354.377 203.766C371.954 212.235 368.474 225.011 373.047 227.869C376.513 230.036 363.902 233.584 361.259 217.292C358.945 268.263 356.357 280.701 353.613 292.073C352.063 298.502 344.564 299.394 345.419 290.55C345.876 285.854 347.536 257.522 342.753 250.348C339.324 245.203 321.225 261.4 289.221 258.455C287.004 278.008 284.205 291.085 283.405 292.837C280.835 298.456 274.886 298.406 275.741 292.796C276.596 287.18 277.785 270.166 271.699 251.596C245.973 233.397 264.264 186.715 256.824 177.766C255.169 175.777 244.72 173.28 241.67 172.974C238.625 172.668 235.886 172.188 234.061 171.881C232.232 171.575 229.516 163.76 229.823 161.629C230.129 159.498 231.624 158.781 235.584 157.258C239.544 155.735 240.102 156.243 239.892 153.929C239.448 149.119 249.874 145.817 255.809 146.407C255.201 145.799 250.871 138.24 249.618 135.465C248.017 131.925 254.501 133.444 256.943 135.972V135.972Z" fill="#722500"/>
<path d="M232.753 161.145C233.064 162.708 230.952 162.946 231.313 164.3C231.674 165.653 233.764 170.043 235.657 169.59C237.55 169.138 239.813 169.27 236.681 170.775C234.294 171.918 232.808 170.829 232.808 170.829C232.808 170.829 229.278 164.094 229.639 162.169C230.005 160.253 232.662 160.696 232.753 161.145Z" fill="#260900"/>
<path d="M254.149 154.578C254.166 155.029 254.091 155.478 253.93 155.898C253.77 156.319 253.525 156.703 253.213 157.028C252.9 157.352 252.525 157.61 252.111 157.787C251.696 157.963 251.25 158.054 250.799 158.054C250.349 158.054 249.903 157.963 249.488 157.787C249.074 157.61 248.699 157.352 248.386 157.028C248.073 156.703 247.829 156.319 247.668 155.898C247.508 155.478 247.433 155.029 247.45 154.578C247.45 152.726 249.128 153.161 250.98 153.161C252.832 153.161 254.149 152.726 254.149 154.578ZM229.64 160.71C229.923 158.598 236.681 159.178 234.235 161.341C232.703 162.695 229.187 164.044 229.64 160.71Z" fill="#01090E"/>
<path d="M253.659 136.475C255.932 137.065 258.712 146.905 257.816 147.042C256.645 147.225 250.879 135.757 253.659 136.475V136.475ZM264.963 163.207C264.963 163.207 269.577 169.261 266.115 173.582C262.658 177.908 255.447 176.463 255.447 176.463C255.447 176.463 262.366 174.446 264.094 170.985C265.827 167.532 264.963 163.207 264.963 163.207Z" fill="#260900"/>
</g>
<path d="M425.258 277.502C425.258 281.141 423.813 284.63 421.24 287.202C418.667 289.775 415.178 291.22 411.54 291.22C407.902 291.22 404.412 289.775 401.84 287.202C399.267 284.63 397.822 281.141 397.822 277.502C397.822 273.864 399.267 270.375 401.84 267.802C404.412 265.23 407.902 263.784 411.54 263.784C415.178 263.784 418.667 265.23 421.24 267.802C423.813 270.375 425.258 273.864 425.258 277.502ZM418.399 241.493H404.681C403.738 241.493 402.966 240.721 402.966 239.778V140.323C402.966 139.38 403.738 138.608 404.681 138.608H418.399C419.342 138.608 420.114 139.38 420.114 140.323V239.778C420.114 240.721 419.342 241.493 418.399 241.493Z" fill="#FFE600"/>
<defs>
<clipPath id="clip0_15_721">
<rect width="164.615" height="164.615" fill="white" transform="translate(219.488 132.607)"/>
</clipPath>
</defs>
</svg>
