<svg width="462" height="454" viewBox="0 0 462 454" fill="none" xmlns="http://www.w3.org/2000/svg">
<ellipse cx="231" cy="226.875" rx="231" ry="226.875" fill="#FB8383"/>
<circle cx="231" cy="226.874" r="190.875" fill="#E70000" stroke="#EA4B4B" stroke-width="6"/>
<path d="M231 140.25C174.737 140.25 144.375 180.519 144.375 218.408C144.375 236.897 153.115 252.962 170.363 266.241V305.25H196.35V279.197H213.675V305.25H248.325V279.197H265.65V305.25H291.638V266.232C308.885 252.962 317.625 236.888 317.625 218.408C317.625 180.519 287.263 140.25 231 140.25V140.25ZM196.35 235.776C186.639 235.776 179.025 226.241 179.025 214.066C179.025 201.891 186.639 192.355 196.35 192.355C206.061 192.355 213.675 201.891 213.675 214.066C213.675 226.241 206.061 235.776 196.35 235.776ZM265.65 235.776C255.939 235.776 248.325 226.241 248.325 214.066C248.325 201.891 255.939 192.355 265.65 192.355C275.361 192.355 282.975 201.891 282.975 214.066C282.975 226.241 275.361 235.776 265.65 235.776Z" fill="black"/>
</svg>
