<svg width="487" height="487" viewBox="0 0 487 487" fill="none" xmlns="http://www.w3.org/2000/svg">
<circle cx="243.965" cy="243.034" r="233.034" fill="#E77D00" stroke="#FFAB08" stroke-width="20"/>
<path d="M165.135 161.571C162.844 159.668 159.705 156.524 156.711 154.854C154.141 153.422 155.434 159.601 157.606 162.047C159.783 164.492 167.038 168.986 170.301 171.432C173.563 173.878 175.141 173.49 171.929 168.986C168.573 164.275 165.135 161.571 165.135 161.571V161.571Z" fill="#260900"/>
<path d="M172.56 153.763C174.256 155.516 176.361 166.142 176.361 166.142C176.361 166.142 182.99 166.618 188.807 170.206C212.076 184.561 201.952 219.547 209.201 227.614C211.435 230.096 259.261 219.118 282.742 230.427C302.619 240.004 298.684 254.451 303.855 257.683C307.775 260.134 293.513 264.147 290.524 245.723C287.908 303.363 284.981 317.428 281.879 330.288C280.126 337.558 271.645 338.567 272.612 328.566C273.129 323.256 275.007 291.216 269.598 283.103C265.72 277.286 245.253 295.601 209.062 292.271C206.554 314.382 203.389 329.171 202.484 331.152C199.578 337.507 192.851 337.45 193.818 331.105C194.785 324.755 196.129 305.514 189.247 284.515C160.155 263.935 180.839 211.145 172.426 201.025C170.554 198.776 158.738 195.952 155.289 195.606C151.845 195.26 148.748 194.717 146.685 194.37C144.616 194.024 141.545 185.187 141.891 182.777C142.238 180.367 143.929 179.555 148.407 177.833C152.885 176.112 153.515 176.686 153.278 174.069C152.776 168.629 164.566 164.896 171.278 165.563C170.59 164.875 165.693 156.328 164.276 153.189C162.466 149.187 169.799 150.903 172.56 153.763V153.763Z" fill="#722500"/>
<path d="M145.206 182.229C145.558 183.997 143.169 184.266 143.577 185.797C143.986 187.327 146.349 192.291 148.49 191.78C150.63 191.268 153.19 191.418 149.648 193.119C146.949 194.412 145.268 193.181 145.268 193.181C145.268 193.181 141.276 185.564 141.685 183.387C142.098 181.221 145.103 181.722 145.206 182.229Z" fill="#260900"/>
<path d="M169.401 174.803C169.42 175.313 169.336 175.82 169.154 176.296C168.972 176.772 168.696 177.207 168.342 177.574C167.989 177.94 167.565 178.232 167.096 178.432C166.627 178.631 166.123 178.734 165.613 178.734C165.104 178.734 164.599 178.631 164.131 178.432C163.662 178.232 163.238 177.94 162.884 177.574C162.531 177.207 162.255 176.772 162.073 176.296C161.891 175.82 161.807 175.313 161.826 174.803C161.826 172.709 163.723 173.2 165.818 173.2C167.912 173.2 169.401 172.709 169.401 174.803ZM141.685 181.738C142.005 179.349 149.648 180.005 146.882 182.451C145.149 183.982 141.173 185.507 141.685 181.738Z" fill="#01090E"/>
<path d="M168.847 154.332C171.417 154.999 174.561 166.127 173.548 166.282C172.224 166.488 165.703 153.52 168.847 154.332V154.332ZM181.63 184.561C181.63 184.561 186.847 191.407 182.933 196.294C179.024 201.185 170.869 199.551 170.869 199.551C170.869 199.551 178.693 197.271 180.647 193.357C182.607 189.453 181.63 184.561 181.63 184.561Z" fill="#260900"/>
<path d="M362.897 313.811C362.897 317.925 361.263 321.871 358.354 324.78C355.445 327.689 351.499 329.324 347.385 329.324C343.27 329.324 339.325 327.689 336.415 324.78C333.506 321.871 331.872 317.925 331.872 313.811C331.872 309.697 333.506 305.751 336.415 302.842C339.325 299.933 343.27 298.298 347.385 298.298C351.499 298.298 355.445 299.933 358.354 302.842C361.263 305.751 362.897 309.697 362.897 313.811ZM355.141 273.09H339.628C338.562 273.09 337.689 272.217 337.689 271.151V158.683C337.689 157.616 338.562 156.744 339.628 156.744H355.141C356.208 156.744 357.08 157.616 357.08 158.683V271.151C357.08 272.217 356.208 273.09 355.141 273.09Z" fill="#FFE600"/>
</svg>
