<svg width="550" height="487" viewBox="0 0 550 487" fill="none" xmlns="http://www.w3.org/2000/svg">
<path d="M-9.71923e-06 242.564L155.128 20.2139L155.128 464.914L-9.71923e-06 242.564Z" fill="#3676C8"/>
<circle cx="306.034" cy="243.034" r="233.034" fill="#64C7F0" stroke="#508CD9" stroke-width="20"/>
<path d="M247.998 161.571C245.707 159.668 242.569 156.524 239.575 154.854C237.005 153.422 238.297 159.601 240.469 162.047C242.646 164.492 249.901 168.986 253.164 171.432C256.427 173.878 258.004 173.49 254.793 168.986C251.437 164.275 247.998 161.571 247.998 161.571Z" fill="#260900"/>
<path d="M255.423 153.763C257.119 155.516 259.224 166.142 259.224 166.142C259.224 166.142 265.853 166.618 271.67 170.206C294.94 184.561 284.815 219.547 292.065 227.614C294.298 230.096 342.124 219.118 365.606 230.427C385.483 240.004 381.548 254.451 386.718 257.683C390.638 260.134 376.377 264.147 373.388 245.723C370.771 303.363 367.845 317.428 364.742 330.288C362.989 337.558 354.509 338.567 355.476 328.566C355.993 323.256 357.87 291.217 352.461 283.103C348.583 277.286 328.116 295.601 291.925 292.271C289.417 314.382 286.252 329.171 285.347 331.152C282.441 337.507 275.714 337.45 276.681 331.105C277.648 324.755 278.992 305.514 272.11 284.515C243.018 263.935 263.702 211.145 255.289 201.025C253.417 198.776 241.601 195.952 238.152 195.606C234.709 195.26 231.611 194.717 229.548 194.37C227.48 194.024 224.408 185.187 224.754 182.777C225.101 180.367 226.792 179.555 231.27 177.833C235.748 176.112 236.379 176.686 236.141 174.069C235.639 168.629 247.429 164.896 254.141 165.563C253.453 164.875 248.556 156.328 247.139 153.189C245.33 149.187 252.662 150.903 255.423 153.763Z" fill="#722500"/>
<path d="M228.069 182.229C228.421 183.997 226.032 184.266 226.44 185.797C226.849 187.327 229.212 192.291 231.353 191.78C233.494 191.268 236.053 191.418 232.511 193.119C229.812 194.412 228.131 193.181 228.131 193.181C228.131 193.181 224.139 185.564 224.548 183.387C224.962 181.221 227.966 181.722 228.069 182.229Z" fill="#260900"/>
<path d="M252.264 174.803C252.283 175.313 252.199 175.82 252.017 176.296C251.835 176.772 251.559 177.207 251.206 177.574C250.852 177.94 250.428 178.232 249.959 178.432C249.49 178.631 248.986 178.734 248.477 178.734C247.967 178.734 247.463 178.631 246.994 178.432C246.525 178.232 246.101 177.94 245.747 177.574C245.394 177.207 245.118 176.772 244.936 176.296C244.754 175.82 244.67 175.313 244.689 174.803C244.689 172.709 246.587 173.2 248.681 173.2C250.775 173.2 252.264 172.709 252.264 174.803ZM224.548 181.738C224.869 179.349 232.511 180.005 229.745 182.451C228.013 183.982 224.036 185.507 224.548 181.738Z" fill="#01090E"/>
<path d="M251.711 154.332C254.281 154.999 257.424 166.127 256.411 166.282C255.087 166.488 248.567 153.52 251.711 154.332ZM264.493 184.561C264.493 184.561 269.711 191.407 265.796 196.294C261.887 201.185 253.732 199.551 253.732 199.551C253.732 199.551 261.556 197.271 263.511 193.357C265.47 189.453 264.493 184.561 264.493 184.561Z" fill="#260900"/>
</svg>
