<svg width="1117" height="1117" viewBox="0 0 1117 1117" fill="none" xmlns="http://www.w3.org/2000/svg">
<circle cx="500" cy="634" r="421" fill="#FFE381"/>
<circle cx="500" cy="634" r="363" fill="#FFF0BD"/>
<circle cx="500" cy="634" r="306" fill="#FFF7DC"/>
<path d="M649.172 419.605C637.562 419.413 626.756 420.801 625.154 422.686C623.549 424.574 615.933 444.202 608.224 466.301C584.227 535.111 565.947 562.683 502.586 625.635C453.654 674.249 444.591 681.71 412.052 700.172L375.894 720.682L372.239 803.383C370.232 848.867 369.61 887.105 370.858 888.353C372.11 889.605 391.76 891.164 414.528 891.82L649.172 419.605ZM649.172 419.605C651.24 419.639 653.13 419.626 654.847 419.614L654.848 419.614C660.673 419.573 664.496 419.546 666.43 421.444C670.122 425.065 666.94 435.692 657.689 466.598C656.261 471.369 654.688 476.623 652.973 482.41L649.172 419.605ZM131.355 791.98C132.039 792.472 132.89 793.057 133.901 793.729C136.29 795.318 139.452 797.315 143.18 799.599C150.627 804.161 160.207 809.79 170.101 815.446C190.039 826.844 210.748 838.059 217.975 841.024C217.975 841.025 217.976 841.025 217.977 841.025L227.955 845.114L228.983 815.982C229.687 796.037 230.453 775.87 230.692 771.177L131.355 791.98ZM131.355 791.98C131.425 791.81 131.505 791.625 131.597 791.425C132.51 789.426 134.151 786.735 136.331 783.936C140.429 778.684 144.8 772.995 146.849 770.262C147.331 770.143 148.014 770.005 148.923 769.858C151.308 769.472 154.725 769.11 158.975 768.804C167.445 768.193 178.852 767.829 191.127 767.865C210.678 767.925 221.361 768.268 227.135 769.378C228.515 769.643 229.439 769.923 230.047 770.175C230.381 770.314 230.578 770.428 230.685 770.499C230.699 770.623 230.709 770.836 230.692 771.177L131.355 791.98ZM64.902 764.336L64.9018 764.336C55.0631 756.346 38.4982 742.907 28.0871 734.472C28.087 734.472 28.087 734.472 28.0869 734.472L12.8312 722.109L19.685 712.577C19.6851 712.577 19.6852 712.577 19.6852 712.577C24.9666 705.232 30.9545 696.67 32.985 693.547C34.2142 691.662 35.8178 689.356 37.19 687.475C37.2427 687.499 37.2963 687.524 37.3509 687.549C39.5931 688.599 42.7917 690.306 46.6953 692.523C54.4681 696.939 64.6731 703.172 74.8535 709.662C85.0325 716.151 95.1168 722.853 102.651 728.196C106.43 730.876 109.497 733.165 111.597 734.89C111.737 735.004 111.87 735.114 111.997 735.221C111.146 736.358 110.059 737.771 108.774 739.411C105.311 743.831 100.503 749.779 95.1886 756.181L78.9497 775.745L64.902 764.336ZM35.0287 686.593C35.0137 686.59 35.0059 686.588 35.0057 686.588C35.0055 686.588 35.013 686.589 35.0287 686.593ZM956.537 322.785L961.375 324.047L956.537 322.786L941.047 382.213L823.882 380.493C757.291 379.514 677.924 377.817 647.516 376.718L647.516 376.717L596.059 374.862L583.79 314.81C580.213 297.303 577.378 281.238 575.69 269.472C574.843 263.571 574.298 258.843 574.083 255.584C574.068 255.353 574.054 255.132 574.043 254.922C574.321 254.915 574.615 254.909 574.924 254.903C578.063 254.841 582.561 254.816 588.244 254.825C599.6 254.843 615.577 254.997 634.64 255.254C672.761 255.769 723.162 256.695 773.494 257.769C823.826 258.844 874.075 260.066 911.89 261.173C930.801 261.727 946.586 262.251 957.713 262.713C963.189 262.94 967.507 263.151 970.504 263.342C970.48 263.48 970.455 263.622 970.43 263.767C969.847 267.098 968.868 271.863 967.558 277.741C964.943 289.478 961.059 305.441 956.537 322.785ZM278.702 811.702L278.702 811.701C279.243 787.602 279.833 765.581 280.346 749.517C280.603 741.481 280.84 734.952 281.042 730.403C281.121 728.633 281.194 727.18 281.259 726.064C281.291 726.051 281.324 726.039 281.358 726.026C282.908 725.436 285.094 724.701 287.758 723.868C293.067 722.211 300.01 720.25 306.973 718.416C313.936 716.582 320.849 714.892 326.095 713.769C327.507 713.467 328.773 713.211 329.873 713.006C329.884 713.985 329.889 715.104 329.888 716.358C329.882 721.684 329.763 729.234 329.554 738.31C329.137 756.453 328.368 780.583 327.458 804.972C326.549 829.361 325.5 853.987 324.527 873.124C324.04 882.695 323.573 890.872 323.152 896.952C322.941 899.995 322.744 902.484 322.565 904.349C322.511 904.902 322.46 905.391 322.412 905.816C321.671 905.881 320.616 905.896 319.192 905.799C314.813 905.501 308.318 904.25 300.028 901.944L276.809 895.484L278.702 811.702ZM323.571 905.615C323.599 905.603 323.615 905.598 323.616 905.598C323.617 905.599 323.603 905.605 323.571 905.615ZM909.211 430.74L907.194 451.783L912.172 452.26L907.194 451.783C895.934 569.326 837.715 679.428 739.28 768.639C651.774 847.943 535.486 890.306 414.672 886.822L414.672 886.822C403.35 886.496 392.832 885.946 385.02 885.326C381.103 885.015 377.932 884.692 375.702 884.379C375.588 884.363 375.478 884.348 375.372 884.332C375.327 883.384 375.29 882.223 375.264 880.85C375.18 876.466 375.202 870.217 375.327 862.538C375.577 847.195 376.232 826.313 377.234 803.604L380.767 723.667L414.519 704.521L414.519 704.521C430.892 695.232 441.577 688.587 454.35 678.071C467.011 667.646 481.677 653.456 506.11 629.182C537.842 597.655 558.552 574.732 574.334 550.928C590.153 527.068 600.884 502.532 612.945 467.948C616.785 456.941 620.596 446.564 623.639 438.723C625.163 434.798 626.48 431.542 627.505 429.174C628.019 427.986 628.439 427.066 628.762 426.416C628.774 426.392 628.785 426.368 628.796 426.346C628.932 426.302 629.093 426.254 629.281 426.202C630.387 425.896 631.995 425.589 634.046 425.326C638.123 424.803 643.484 424.512 649.089 424.604C651.213 424.64 653.221 424.626 654.967 424.614C655.777 424.608 656.531 424.603 657.214 424.603C659.524 424.604 661.048 424.668 662.123 424.855C662.465 424.914 662.692 424.976 662.835 425.023C662.865 425.164 662.899 425.382 662.918 425.699C663.072 428.242 662.168 433.066 659.6 442.335C657.946 448.304 655.719 455.742 652.92 465.092C651.489 469.872 649.909 475.151 648.179 480.989C644.579 493.139 641.739 504.125 640.07 512.056C639.244 515.985 638.669 519.328 638.46 521.735C638.363 522.854 638.303 524.178 638.498 525.351C638.581 525.846 638.814 527.055 639.695 528.177C640.2 528.821 640.998 529.534 642.147 529.932C643.311 530.334 644.418 530.267 645.284 530.032L645.29 530.03C646.578 529.677 647.717 528.993 648.578 528.398C649.506 527.755 650.468 526.962 651.433 526.088C653.367 524.339 655.584 522.023 657.962 519.338C662.733 513.952 668.424 506.772 674.234 498.907C685.823 483.219 698.192 464.385 704.869 451.054L716.607 427.622L782.112 427.602L782.426 453.004C782.426 453.004 782.426 453.004 782.426 453.004C783.054 503.989 771.906 555.544 746.818 616.656L737.179 640.138L745.305 645.607L758.611 632.56L758.611 632.559C783.462 608.18 813.148 554.233 830.328 503.11L835.671 487.211L835.358 496.101C834.936 508.07 834.944 518.636 835.309 526.028C835.489 529.673 835.765 532.76 836.172 534.897C836.346 535.808 836.653 537.201 837.333 538.362C837.617 538.846 838.581 540.388 840.615 540.961C843.165 541.678 845.065 540.34 845.853 539.552C847.267 538.138 848.682 536.061 850.028 533.814C851.426 531.48 852.942 528.63 854.52 525.431C857.677 519.028 861.18 511.019 864.597 502.506C871.408 485.539 878.035 466.165 880.906 453.114L885.938 430.248L909.211 430.74ZM662.769 424.801C662.769 424.8 662.774 424.807 662.781 424.825C662.772 424.81 662.769 424.801 662.769 424.801ZM130.905 793.36C130.905 793.36 130.905 793.354 130.907 793.342C130.906 793.354 130.905 793.36 130.905 793.36ZM230.655 770.353C230.656 770.351 230.664 770.367 230.672 770.411C230.657 770.378 230.653 770.356 230.655 770.353Z" fill="#FFC700" stroke="#BF9500" stroke-width="10"/>
<path d="M499.833 399.333C591.055 399.333 665 325.388 665 234.166C665 142.945 591.055 69 499.833 69C408.612 69 334.667 142.945 334.667 234.166C334.667 325.388 408.612 399.333 499.833 399.333Z" fill="#242424" stroke="#575757" stroke-width="20" stroke-linecap="round" stroke-linejoin="round"/>
<path d="M499.831 300.233L499.831 250.683L549.38 168.1" fill="#242424"/>
<path d="M450.281 168.1L499.831 250.683M499.831 250.683L499.831 300.233M499.831 250.683L549.38 168.1" stroke="#FFC700" stroke-width="20" stroke-linecap="round" stroke-linejoin="round"/>
</svg>
