<svg width="470" height="476" viewBox="0 0 470 476" fill="none" xmlns="http://www.w3.org/2000/svg">
<g filter="url(#filter0_d_15_618)">
<path d="M234.833 451.71C356.8 451.71 455.667 352.843 455.667 230.877C455.667 108.911 356.8 10.0435 234.833 10.0435C112.867 10.0435 14 108.911 14 230.877C14 352.843 112.867 451.71 234.833 451.71Z" fill="#242424" stroke="#575757" stroke-width="20" stroke-linecap="round" stroke-linejoin="round"/>
<path d="M248.061 227.034C304.042 227.034 304.042 319.21 248.061 319.21H179.625V227.034H248.061ZM248.061 227.034H179.625H248.061ZM248.061 227.034C304.042 227.034 304.042 142.543 248.061 142.543H179.625V227.034" fill="#242424"/>
<path d="M248.061 227.034C304.042 227.034 304.042 142.543 248.061 142.543H179.625V227.034M248.061 227.034C304.042 227.034 304.042 319.21 248.061 319.21H179.625V227.034H248.061ZM248.061 227.034H179.625H248.061Z" stroke="#B72929" stroke-width="20" stroke-linecap="round" stroke-linejoin="round"/>
</g>
<defs>
<filter id="filter0_d_15_618" x="0" y="0.043457" width="469.666" height="475.667" filterUnits="userSpaceOnUse" color-interpolation-filters="sRGB">
<feFlood flood-opacity="0" result="BackgroundImageFix"/>
<feColorMatrix in="SourceAlpha" type="matrix" values="0 0 0 0 0 0 0 0 0 0 0 0 0 0 0 0 0 0 127 0" result="hardAlpha"/>
<feOffset dy="10"/>
<feGaussianBlur stdDeviation="2"/>
<feComposite in2="hardAlpha" operator="out"/>
<feColorMatrix type="matrix" values="0 0 0 0 0 0 0 0 0 0 0 0 0 0 0 0 0 0 0.25 0"/>
<feBlend mode="normal" in2="BackgroundImageFix" result="effect1_dropShadow_15_618"/>
<feBlend mode="normal" in="SourceGraphic" in2="effect1_dropShadow_15_618" result="shape"/>
</filter>
</defs>
</svg>
