<svg width="462" height="462" viewBox="0 0 462 462" fill="none" xmlns="http://www.w3.org/2000/svg">
<path d="M230.833 451.71C352.8 451.71 451.667 352.843 451.667 230.877C451.667 108.911 352.8 10.0435 230.833 10.0435C108.867 10.0435 10 108.911 10 230.877C10 352.843 108.867 451.71 230.833 451.71Z" fill="#DBDBDB" stroke="#575757" stroke-width="20" stroke-linecap="round" stroke-linejoin="round"/>
<path d="M244.061 227.034C300.042 227.034 300.042 319.21 244.061 319.21H175.625V227.034H244.061ZM244.061 227.034H175.625H244.061ZM244.061 227.034C300.042 227.034 300.042 142.543 244.061 142.543H175.625V227.034" fill="#DBDBDB"/>
<path d="M244.061 227.034C300.042 227.034 300.042 142.543 244.061 142.543H175.625V227.034M244.061 227.034C300.042 227.034 300.042 319.21 244.061 319.21H175.625V227.034H244.061ZM244.061 227.034H175.625H244.061Z" stroke="#B72929" stroke-width="20" stroke-linecap="round" stroke-linejoin="round"/>
</svg>
