<svg width="500" height="500" viewBox="0 0 500 500" fill="none" xmlns="http://www.w3.org/2000/svg">
<rect x="10" y="10" width="480" height="480" rx="40" fill="#242424" stroke="#575757" stroke-width="20"/>
<path d="M240.25 326H193.568V174.727H242.318C256.992 174.727 269.549 177.756 279.989 183.812C290.428 189.82 298.43 198.462 303.994 209.739C309.559 220.966 312.341 234.409 312.341 250.068C312.341 265.826 309.534 279.392 303.92 290.767C298.307 302.093 290.133 310.809 279.398 316.915C268.663 322.972 255.614 326 240.25 326ZM211.886 309.75H239.068C251.576 309.75 261.941 307.337 270.165 302.511C278.388 297.686 284.519 290.816 288.557 281.903C292.595 272.991 294.614 262.379 294.614 250.068C294.614 237.856 292.619 227.343 288.631 218.528C284.642 209.665 278.684 202.869 270.756 198.142C262.828 193.366 252.955 190.977 241.136 190.977H211.886V309.75Z" fill="#C4C4C4"/>
</svg>
