<svg width="500" height="500" viewBox="0 0 500 500" fill="none" xmlns="http://www.w3.org/2000/svg">
<rect x="10" y="10" width="480" height="480" rx="40" fill="#242424" stroke="#575757" stroke-width="20"/>
<path d="M285.225 212.545C284.339 205.061 280.744 199.25 274.441 195.114C268.138 190.977 260.407 188.909 251.248 188.909C244.551 188.909 238.691 189.992 233.668 192.159C228.695 194.326 224.805 197.305 221.998 201.097C219.24 204.888 217.862 209.197 217.862 214.023C217.862 218.061 218.822 221.532 220.742 224.438C222.712 227.294 225.223 229.682 228.276 231.602C231.329 233.473 234.53 235.025 237.879 236.256C241.227 237.437 244.305 238.398 247.112 239.136L262.475 243.273C266.415 244.307 270.797 245.735 275.623 247.557C280.498 249.379 285.151 251.866 289.583 255.017C294.064 258.119 297.757 262.108 300.663 266.983C303.568 271.858 305.021 277.841 305.021 284.932C305.021 293.106 302.879 300.492 298.594 307.091C294.36 313.689 288.155 318.934 279.981 322.824C271.856 326.714 261.983 328.659 250.362 328.659C239.528 328.659 230.147 326.911 222.219 323.415C214.341 319.919 208.136 315.044 203.606 308.79C199.125 302.536 196.589 295.273 195.998 287H214.907C215.399 292.712 217.32 297.439 220.668 301.182C224.066 304.875 228.35 307.633 233.521 309.455C238.74 311.227 244.354 312.114 250.362 312.114C257.354 312.114 263.632 310.981 269.197 308.716C274.761 306.402 279.168 303.201 282.418 299.114C285.668 294.977 287.293 290.152 287.293 284.636C287.293 279.614 285.89 275.527 283.083 272.375C280.276 269.223 276.583 266.663 272.004 264.693C267.424 262.723 262.475 261 257.157 259.523L238.543 254.205C226.725 250.807 217.369 245.956 210.475 239.653C203.581 233.35 200.134 225.102 200.134 214.909C200.134 206.439 202.424 199.053 207.004 192.75C211.632 186.398 217.837 181.473 225.617 177.977C233.447 174.432 242.187 172.659 251.839 172.659C261.589 172.659 270.255 174.407 277.839 177.903C285.422 181.35 291.43 186.078 295.862 192.085C300.343 198.093 302.706 204.913 302.952 212.545H285.225Z" fill="#C4C4C4"/>
</svg>
